<!-- Generated by IcoMoon.io -->
<svg version="1.1" xmlns="http://www.w3.org/2000/svg" viewBox="0 0 32 32">
<title>pen</title>
<path d="M15.923 1.667h2.077c0.552 0 1 0.448 1 1s-0.448 1-1 1h-2c-3.171 0-5.449 0.002-7.182 0.235-1.705 0.229-2.732 0.665-3.492 1.425s-1.195 1.787-1.425 3.492c-0.233 1.733-0.235 4.011-0.235 7.182s0.002 5.449 0.235 7.182c0.229 1.705 0.665 2.732 1.425 3.492s1.787 1.195 3.492 1.425c1.733 0.233 4.011 0.235 7.182 0.235s5.449-0.002 7.182-0.235c1.705-0.229 2.732-0.665 3.492-1.425s1.195-1.787 1.425-3.492c0.233-1.733 0.235-4.011 0.235-7.182v-2c0-0.552 0.448-1 1-1s1 0.448 1 1v2.077c0 3.078 0 5.49-0.253 7.372-0.259 1.926-0.799 3.446-1.993 4.639s-2.713 1.733-4.639 1.993c-1.882 0.253-4.294 0.253-7.372 0.253h-0.153c-3.078 0-5.49 0-7.372-0.253-1.926-0.259-3.446-0.799-4.639-1.993s-1.734-2.713-1.993-4.639c-0.253-1.882-0.253-4.294-0.253-7.372v-0.153c0-3.078-0-5.49 0.253-7.372 0.259-1.926 0.799-3.446 1.993-4.639s2.713-1.734 4.639-1.993c1.882-0.253 4.294-0.253 7.372-0.253zM22.361 3.035c1.824-1.824 4.781-1.824 6.605 0s1.824 4.781 0 6.605l-8.864 8.864c-0.495 0.495-0.805 0.805-1.151 1.075-0.408 0.318-0.849 0.59-1.315 0.813-0.396 0.189-0.812 0.327-1.476 0.549l-3.873 1.291c-0.715 0.238-1.503 0.052-2.036-0.481s-0.719-1.321-0.481-2.036l1.291-3.873c0.221-0.664 0.36-1.080 0.549-1.476 0.222-0.467 0.495-0.908 0.813-1.315 0.27-0.346 0.58-0.656 1.075-1.151l8.864-8.864zM27.551 4.449c-1.043-1.043-2.733-1.043-3.776 0l-0.502 0.502c0.030 0.128 0.073 0.28 0.131 0.45 0.191 0.551 0.553 1.276 1.236 1.959s1.408 1.045 1.959 1.236c0.17 0.059 0.322 0.101 0.45 0.132l0.502-0.502c1.043-1.043 1.043-2.734 0-3.776zM25.473 10.303c-0.688-0.296-1.489-0.77-2.248-1.529s-1.233-1.56-1.529-2.248l-6.741 6.741c-0.555 0.555-0.773 0.776-0.958 1.013-0.229 0.293-0.425 0.61-0.584 0.946-0.13 0.272-0.229 0.565-0.477 1.31l-0.576 1.728 1.376 1.376 1.728-0.576c0.745-0.248 1.038-0.348 1.31-0.477 0.335-0.16 0.653-0.356 0.946-0.584 0.237-0.185 0.457-0.403 1.013-0.958l6.741-6.741z"></path>
</svg>
