<!-- Generated by IcoMoon.io -->
<svg version="1.1" xmlns="http://www.w3.org/2000/svg" viewBox="0 0 32 32">
<title>trash</title>
<path d="M13.746 3c-0.289-0-0.54-0-0.777 0.038-0.938 0.15-1.749 0.735-2.188 1.577-0.111 0.213-0.19 0.452-0.281 0.726l-0.149 0.447c-0.025 0.076-0.032 0.097-0.039 0.114-0.233 0.646-0.839 1.082-1.525 1.099-0.018 0-0.040 0.001-0.12 0.001h-4c-0.552 0-1 0.448-1 1s0.448 1 1 1h22.667c0.552 0 1-0.448 1-1s-0.448-1-1-1h-4c-0.080 0-0.102-0-0.12-0.001-0.686-0.017-1.291-0.454-1.525-1.099-0.006-0.017-0.013-0.038-0.038-0.114l-0.149-0.447c-0.091-0.274-0.17-0.512-0.281-0.725-0.439-0.842-1.25-1.427-2.188-1.577-0.237-0.038-0.489-0.038-0.777-0.038h-4.509zM12.011 7c0.069-0.135 0.13-0.275 0.182-0.419 0.016-0.044 0.031-0.091 0.052-0.151l0.133-0.399c0.122-0.365 0.15-0.439 0.177-0.492 0.146-0.281 0.417-0.476 0.729-0.526 0.059-0.009 0.139-0.013 0.523-0.013h4.386c0.384 0 0.464 0.003 0.523 0.013 0.313 0.050 0.583 0.245 0.729 0.526 0.028 0.053 0.056 0.128 0.177 0.492l0.133 0.399 0.052 0.151c0.052 0.145 0.113 0.285 0.182 0.419h-7.978z"></path>
<path d="M7.887 11.267c-0.037-0.551-0.513-0.968-1.064-0.931s-0.968 0.513-0.931 1.064l0.618 9.269c0.114 1.71 0.206 3.092 0.422 4.176 0.225 1.127 0.606 2.069 1.395 2.807s1.754 1.056 2.893 1.205c1.096 0.143 2.481 0.143 4.195 0.143h1.172c1.714 0 3.099 0 4.195-0.143 1.139-0.149 2.104-0.467 2.893-1.205s1.171-1.679 1.395-2.807c0.216-1.084 0.308-2.466 0.422-4.176l0.618-9.269c0.037-0.551-0.38-1.028-0.931-1.064s-1.028 0.38-1.064 0.931l-0.613 9.199c-0.12 1.797-0.205 3.047-0.393 3.988-0.182 0.913-0.436 1.396-0.8 1.737s-0.863 0.562-1.786 0.683c-0.951 0.124-2.205 0.126-4.006 0.126h-1.031c-1.801 0-3.054-0.002-4.006-0.126-0.923-0.121-1.422-0.342-1.786-0.683s-0.618-0.824-0.8-1.737c-0.187-0.941-0.273-2.191-0.393-3.988l-0.613-9.199z"></path>
<path d="M12.567 13.672c0.55-0.055 1.040 0.346 1.095 0.895l0.667 6.667c0.055 0.55-0.346 1.040-0.896 1.095s-1.040-0.346-1.095-0.895l-0.667-6.667c-0.055-0.55 0.346-1.040 0.896-1.095z"></path>
<path d="M19.433 13.672c0.55 0.055 0.951 0.545 0.896 1.095l-0.667 6.667c-0.055 0.549-0.545 0.95-1.095 0.895s-0.951-0.545-0.896-1.095l0.667-6.667c0.055-0.549 0.545-0.951 1.095-0.895z"></path>
</svg>
